<?xml version="1.0" encoding="UTF-8" standalone="no"?>
<!DOCTYPE svg PUBLIC "-//W3C//DTD SVG 1.1//EN"
 "http://www.w3.org/Graphics/SVG/1.1/DTD/svg11.dtd">
<!-- Generated by graphviz version 2.36.0 (20140111.2315)
 -->
<!-- Title: %3 Pages: 1 -->
<svg width="413pt" height="1844pt"
 viewBox="0.00 0.00 413.00 1844.00" xmlns="http://www.w3.org/2000/svg" xmlns:xlink="http://www.w3.org/1999/xlink">
<g id="graph0" class="graph" transform="scale(1 1) rotate(0) translate(4 1840)">
<title>%3</title>
<polygon fill="white" stroke="none" points="-4,4 -4,-1840 409,-1840 409,4 -4,4"/>
<!-- 0 -->
<g id="node1" class="node"><title>0</title>
<polygon fill="none" stroke="black" points="136,-1836 2,-1836 2,-1800 136,-1800 136,-1836"/>
<text text-anchor="start" x="12.5" y="-1815.3" font-family="Times,serif" font-size="14.00">2050 : movw </text>
<text text-anchor="start" x="89.5" y="-1815.3" font-family="Times,serif" font-size="14.00" fill="#000000">Z</text>
<text text-anchor="start" x="98.5" y="-1815.3" font-family="Times,serif" font-size="14.00">, </text>
<text text-anchor="start" x="106.5" y="-1815.3" font-family="Times,serif" font-size="14.00" fill="#7fffff">r22</text>
</g>
<!-- 1 -->
<g id="node2" class="node"><title>1</title>
<polygon fill="none" stroke="black" points="128,-1764 10,-1764 10,-1728 128,-1728 128,-1764"/>
<text text-anchor="start" x="20.5" y="-1743.3" font-family="Times,serif" font-size="14.00">2052 : ld </text>
<text text-anchor="start" x="73.5" y="-1743.3" font-family="Times,serif" font-size="14.00" fill="#55ffff">r21</text>
<text text-anchor="start" x="92.5" y="-1743.3" font-family="Times,serif" font-size="14.00">, </text>
<text text-anchor="start" x="100.5" y="-1743.3" font-family="Times,serif" font-size="14.00" fill="#000000">Z+</text>
</g>
<!-- 0&#45;&gt;1 -->
<g id="edge1" class="edge"><title>0&#45;&gt;1</title>
<path fill="none" stroke="black" d="M69,-1799.7C69,-1791.98 69,-1782.71 69,-1774.11"/>
<polygon fill="black" stroke="black" points="72.5001,-1774.1 69,-1764.1 65.5001,-1774.1 72.5001,-1774.1"/>
</g>
<!-- 2 -->
<g id="node3" class="node"><title>2</title>
<polygon fill="none" stroke="black" points="133.25,-1692 4.75,-1692 4.75,-1656 133.25,-1656 133.25,-1692"/>
<text text-anchor="start" x="15.5" y="-1671.3" font-family="Times,serif" font-size="14.00">2054 : and </text>
<text text-anchor="start" x="77.5" y="-1671.3" font-family="Times,serif" font-size="14.00" fill="#55ffff">r21</text>
<text text-anchor="start" x="96.5" y="-1671.3" font-family="Times,serif" font-size="14.00">, </text>
<text text-anchor="start" x="104.5" y="-1671.3" font-family="Times,serif" font-size="14.00" fill="#55ffff">r21</text>
</g>
<!-- 1&#45;&gt;2 -->
<g id="edge2" class="edge"><title>1&#45;&gt;2</title>
<path fill="none" stroke="black" d="M69,-1727.7C69,-1719.98 69,-1710.71 69,-1702.11"/>
<polygon fill="black" stroke="black" points="72.5001,-1702.1 69,-1692.1 65.5001,-1702.1 72.5001,-1702.1"/>
</g>
<!-- 3 -->
<g id="node4" class="node"><title>3</title>
<polygon fill="none" stroke="black" points="128,-1620 10,-1620 10,-1584 128,-1584 128,-1620"/>
<text text-anchor="start" x="20.5" y="-1599.3" font-family="Times,serif" font-size="14.00">2056 : breq </text>
<text text-anchor="start" x="87.5" y="-1599.3" font-family="Times,serif" font-size="14.00" fill="#000000">.+42</text>
<text text-anchor="start" x="113.5" y="-1599.3" font-family="Times,serif" font-size="14.00" fill="#000000"> </text>
</g>
<!-- 2&#45;&gt;3 -->
<g id="edge3" class="edge"><title>2&#45;&gt;3</title>
<path fill="none" stroke="black" d="M69,-1655.7C69,-1647.98 69,-1638.71 69,-1630.11"/>
<polygon fill="black" stroke="black" points="72.5001,-1630.1 69,-1620.1 65.5001,-1630.1 72.5001,-1630.1"/>
</g>
<!-- 4 -->
<g id="node5" class="node"><title>4</title>
<polygon fill="none" stroke="black" points="203,-1548 69,-1548 69,-1512 203,-1512 203,-1548"/>
<text text-anchor="start" x="79.5" y="-1527.3" font-family="Times,serif" font-size="14.00">2058 : movw </text>
<text text-anchor="start" x="156.5" y="-1527.3" font-family="Times,serif" font-size="14.00" fill="#7fffff">r22</text>
<text text-anchor="start" x="175.5" y="-1527.3" font-family="Times,serif" font-size="14.00">, </text>
<text text-anchor="start" x="183.5" y="-1527.3" font-family="Times,serif" font-size="14.00" fill="#000000">Z</text>
</g>
<!-- 3&#45;&gt;4 -->
<g id="edge4" class="edge"><title>3&#45;&gt;4</title>
<path fill="none" stroke="black" d="M85.5618,-1583.7C93.6753,-1575.22 103.588,-1564.86 112.471,-1555.58"/>
<polygon fill="black" stroke="black" points="115.243,-1557.75 119.629,-1548.1 110.186,-1552.91 115.243,-1557.75"/>
</g>
<!-- 25 -->
<g id="node6" class="node"><title>25</title>
<polygon fill="none" stroke="black" points="104,-36 0,-36 0,-0 104,-0 104,-36"/>
<text text-anchor="start" x="10.5" y="-15.3" font-family="Times,serif" font-size="14.00">2082 : ret </text>
<text text-anchor="start" x="67.5" y="-15.3" font-family="Times,serif" font-size="14.00" fill="#000000">null</text>
<text text-anchor="start" x="89.5" y="-15.3" font-family="Times,serif" font-size="14.00" fill="#000000"> </text>
</g>
<!-- 3&#45;&gt;25 -->
<g id="edge5" class="edge"><title>3&#45;&gt;25</title>
<path fill="none" stroke="black" d="M54.791,-1583.86C35.1238,-1558.34 2,-1508.07 2,-1459 2,-1459 2,-1459 2,-161 2,-120.553 6.38184,-109.713 21,-72 24.5649,-62.8031 29.6027,-53.3304 34.583,-44.9828"/>
<polygon fill="black" stroke="black" points="37.5903,-46.7745 39.8921,-36.4327 31.6435,-43.0818 37.5903,-46.7745"/>
</g>
<!-- 5 -->
<g id="node7" class="node"><title>5</title>
<polygon fill="none" stroke="black" points="243,-1476 109,-1476 109,-1440 243,-1440 243,-1476"/>
<text text-anchor="start" x="119.5" y="-1455.3" font-family="Times,serif" font-size="14.00">205a : movw </text>
<text text-anchor="start" x="195.5" y="-1455.3" font-family="Times,serif" font-size="14.00" fill="#000000">X</text>
<text text-anchor="start" x="205.5" y="-1455.3" font-family="Times,serif" font-size="14.00">, </text>
<text text-anchor="start" x="213.5" y="-1455.3" font-family="Times,serif" font-size="14.00" fill="#ff7fff">r24</text>
</g>
<!-- 4&#45;&gt;5 -->
<g id="edge6" class="edge"><title>4&#45;&gt;5</title>
<path fill="none" stroke="black" d="M145.888,-1511.7C150.489,-1503.64 156.06,-1493.89 161.153,-1484.98"/>
<polygon fill="black" stroke="black" points="164.304,-1486.52 166.226,-1476.1 158.226,-1483.05 164.304,-1486.52"/>
</g>
<!-- 6 -->
<g id="node8" class="node"><title>6</title>
<polygon fill="none" stroke="black" points="235.25,-1404 116.75,-1404 116.75,-1368 235.25,-1368 235.25,-1404"/>
<text text-anchor="start" x="127.5" y="-1383.3" font-family="Times,serif" font-size="14.00">205c : ld </text>
<text text-anchor="start" x="179.5" y="-1383.3" font-family="Times,serif" font-size="14.00" fill="#7f7fff">r20</text>
<text text-anchor="start" x="198.5" y="-1383.3" font-family="Times,serif" font-size="14.00">, </text>
<text text-anchor="start" x="206.5" y="-1383.3" font-family="Times,serif" font-size="14.00" fill="#000000">X+</text>
</g>
<!-- 5&#45;&gt;6 -->
<g id="edge7" class="edge"><title>5&#45;&gt;6</title>
<path fill="none" stroke="black" d="M176,-1439.7C176,-1431.98 176,-1422.71 176,-1414.11"/>
<polygon fill="black" stroke="black" points="179.5,-1414.1 176,-1404.1 172.5,-1414.1 179.5,-1414.1"/>
</g>
<!-- 7 -->
<g id="node9" class="node"><title>7</title>
<polygon fill="none" stroke="black" points="283,-1332 161,-1332 161,-1296 283,-1296 283,-1332"/>
<text text-anchor="start" x="171.5" y="-1311.3" font-family="Times,serif" font-size="14.00">205e : cp </text>
<text text-anchor="start" x="226.5" y="-1311.3" font-family="Times,serif" font-size="14.00" fill="#7f7fff">r20</text>
<text text-anchor="start" x="245.5" y="-1311.3" font-family="Times,serif" font-size="14.00">, </text>
<text text-anchor="start" x="253.5" y="-1311.3" font-family="Times,serif" font-size="14.00" fill="#55ffff">r21</text>
</g>
<!-- 6&#45;&gt;7 -->
<g id="edge8" class="edge"><title>6&#45;&gt;7</title>
<path fill="none" stroke="black" d="M187.371,-1367.7C192.718,-1359.56 199.204,-1349.69 205.111,-1340.7"/>
<polygon fill="black" stroke="black" points="208.193,-1342.38 210.76,-1332.1 202.343,-1338.54 208.193,-1342.38"/>
</g>
<!-- 8 -->
<g id="node10" class="node"><title>8</title>
<polygon fill="none" stroke="black" points="286.25,-1260 159.75,-1260 159.75,-1224 286.25,-1224 286.25,-1260"/>
<text text-anchor="start" x="170.5" y="-1239.3" font-family="Times,serif" font-size="14.00">2060 : cpse </text>
<text text-anchor="start" x="237.5" y="-1239.3" font-family="Times,serif" font-size="14.00" fill="#7f7fff">r20</text>
<text text-anchor="start" x="256.5" y="-1239.3" font-family="Times,serif" font-size="14.00">, </text>
<text text-anchor="start" x="264.5" y="-1239.3" font-family="Times,serif" font-size="14.00" fill="#557fff">r1</text>
</g>
<!-- 7&#45;&gt;8 -->
<g id="edge9" class="edge"><title>7&#45;&gt;8</title>
<path fill="none" stroke="black" d="M222.247,-1295.7C222.357,-1287.98 222.49,-1278.71 222.613,-1270.11"/>
<polygon fill="black" stroke="black" points="226.112,-1270.15 222.756,-1260.1 219.113,-1270.05 226.112,-1270.15"/>
</g>
<!-- 9 -->
<g id="node11" class="node"><title>9</title>
<polygon fill="none" stroke="black" points="236,-1188 128,-1188 128,-1152 236,-1152 236,-1188"/>
<text text-anchor="start" x="138.5" y="-1167.3" font-family="Times,serif" font-size="14.00">2062 : brne </text>
<text text-anchor="start" x="205.5" y="-1167.3" font-family="Times,serif" font-size="14.00" fill="#000000">.&#45;8</text>
<text text-anchor="start" x="221.5" y="-1167.3" font-family="Times,serif" font-size="14.00" fill="#000000"> </text>
</g>
<!-- 8&#45;&gt;9 -->
<g id="edge10" class="edge"><title>8&#45;&gt;9</title>
<path fill="none" stroke="black" d="M212.865,-1223.7C208.148,-1215.64 202.438,-1205.89 197.218,-1196.98"/>
<polygon fill="black" stroke="black" points="200.092,-1194.96 192.018,-1188.1 194.052,-1198.5 200.092,-1194.96"/>
</g>
<!-- 9&#45;&gt;6 -->
<g id="edge11" class="edge"><title>9&#45;&gt;6</title>
<path fill="none" stroke="black" d="M168.436,-1188.03C161.442,-1197.91 153.633,-1210.95 150,-1224 137.121,-1270.25 141.219,-1285.22 152,-1332 154.087,-1341.06 157.773,-1350.45 161.64,-1358.76"/>
<polygon fill="black" stroke="black" points="158.61,-1360.53 166.177,-1367.95 164.886,-1357.43 158.61,-1360.53"/>
</g>
<!-- 10 -->
<g id="node12" class="node"><title>10</title>
<polygon fill="none" stroke="black" points="241,-1116 123,-1116 123,-1080 241,-1080 241,-1116"/>
<text text-anchor="start" x="133.5" y="-1095.3" font-family="Times,serif" font-size="14.00">2064 : brne </text>
<text text-anchor="start" x="200.5" y="-1095.3" font-family="Times,serif" font-size="14.00" fill="#000000">.+22</text>
<text text-anchor="start" x="226.5" y="-1095.3" font-family="Times,serif" font-size="14.00" fill="#000000"> </text>
</g>
<!-- 9&#45;&gt;10 -->
<g id="edge12" class="edge"><title>9&#45;&gt;10</title>
<path fill="none" stroke="black" d="M182,-1151.7C182,-1143.98 182,-1134.71 182,-1126.11"/>
<polygon fill="black" stroke="black" points="185.5,-1126.1 182,-1116.1 178.5,-1126.1 185.5,-1126.1"/>
</g>
<!-- 11 -->
<g id="node13" class="node"><title>11</title>
<polygon fill="none" stroke="black" points="233.25,-1044 98.75,-1044 98.75,-1008 233.25,-1008 233.25,-1044"/>
<text text-anchor="start" x="109.5" y="-1023.3" font-family="Times,serif" font-size="14.00">2066 : movw </text>
<text text-anchor="start" x="186.5" y="-1023.3" font-family="Times,serif" font-size="14.00" fill="#ff7fff">r24</text>
<text text-anchor="start" x="205.5" y="-1023.3" font-family="Times,serif" font-size="14.00">, </text>
<text text-anchor="start" x="213.5" y="-1023.3" font-family="Times,serif" font-size="14.00" fill="#000000">X</text>
</g>
<!-- 10&#45;&gt;11 -->
<g id="edge13" class="edge"><title>10&#45;&gt;11</title>
<path fill="none" stroke="black" d="M178.045,-1079.7C176.282,-1071.98 174.163,-1062.71 172.197,-1054.11"/>
<polygon fill="black" stroke="black" points="175.55,-1053.07 169.91,-1044.1 168.726,-1054.63 175.55,-1053.07"/>
</g>
<!-- 22 -->
<g id="node14" class="node"><title>22</title>
<polygon fill="none" stroke="black" points="328,-252 196,-252 196,-216 328,-216 328,-252"/>
<text text-anchor="start" x="206.5" y="-231.3" font-family="Times,serif" font-size="14.00">207c : ldi </text>
<text text-anchor="start" x="262.5" y="-231.3" font-family="Times,serif" font-size="14.00" fill="#ff7fff">r24</text>
<text text-anchor="start" x="281.5" y="-231.3" font-family="Times,serif" font-size="14.00">, </text>
<text text-anchor="start" x="289.5" y="-231.3" font-family="Times,serif" font-size="14.00" fill="#000000">0x01</text>
</g>
<!-- 10&#45;&gt;22 -->
<g id="edge14" class="edge"><title>10&#45;&gt;22</title>
<path fill="none" stroke="black" d="M207.924,-1079.94C220.023,-1070.69 233.58,-1058.24 242,-1044 262.641,-1009.11 262,-995.542 262,-955 262,-955 262,-955 262,-377 262,-336.996 262,-290.653 262,-262.08"/>
<polygon fill="black" stroke="black" points="265.5,-262.049 262,-252.049 258.5,-262.049 265.5,-262.049"/>
</g>
<!-- 12 -->
<g id="node15" class="node"><title>12</title>
<polygon fill="none" stroke="black" points="221.25,-972 110.75,-972 110.75,-936 221.25,-936 221.25,-972"/>
<text text-anchor="start" x="121.5" y="-951.3" font-family="Times,serif" font-size="14.00">2068 : ld </text>
<text text-anchor="start" x="174.5" y="-951.3" font-family="Times,serif" font-size="14.00" fill="#ff55ff">r0</text>
<text text-anchor="start" x="186.5" y="-951.3" font-family="Times,serif" font-size="14.00">, </text>
<text text-anchor="start" x="194.5" y="-951.3" font-family="Times,serif" font-size="14.00" fill="#000000">Z+</text>
</g>
<!-- 11&#45;&gt;12 -->
<g id="edge15" class="edge"><title>11&#45;&gt;12</title>
<path fill="none" stroke="black" d="M166,-1007.7C166,-999.983 166,-990.712 166,-982.112"/>
<polygon fill="black" stroke="black" points="169.5,-982.104 166,-972.104 162.5,-982.104 169.5,-982.104"/>
</g>
<!-- 23 -->
<g id="node26" class="node"><title>23</title>
<polygon fill="none" stroke="black" points="264,-180 132,-180 132,-144 264,-144 264,-180"/>
<text text-anchor="start" x="142.5" y="-159.3" font-family="Times,serif" font-size="14.00">207e : ldi </text>
<text text-anchor="start" x="198.5" y="-159.3" font-family="Times,serif" font-size="14.00" fill="#7f55ff">r25</text>
<text text-anchor="start" x="217.5" y="-159.3" font-family="Times,serif" font-size="14.00">, </text>
<text text-anchor="start" x="225.5" y="-159.3" font-family="Times,serif" font-size="14.00" fill="#000000">0x00</text>
</g>
<!-- 22&#45;&gt;23 -->
<g id="edge29" class="edge"><title>22&#45;&gt;23</title>
<path fill="none" stroke="black" d="M246.18,-215.697C238.43,-207.22 228.961,-196.864 220.476,-187.583"/>
<polygon fill="black" stroke="black" points="222.969,-185.123 213.638,-180.104 217.803,-189.846 222.969,-185.123"/>
</g>
<!-- 13 -->
<g id="node16" class="node"><title>13</title>
<polygon fill="none" stroke="black" points="193,-900 79,-900 79,-864 193,-864 193,-900"/>
<text text-anchor="start" x="89.5" y="-879.3" font-family="Times,serif" font-size="14.00">206a : and </text>
<text text-anchor="start" x="150.5" y="-879.3" font-family="Times,serif" font-size="14.00" fill="#ff55ff">r0</text>
<text text-anchor="start" x="162.5" y="-879.3" font-family="Times,serif" font-size="14.00">, </text>
<text text-anchor="start" x="170.5" y="-879.3" font-family="Times,serif" font-size="14.00" fill="#ff55ff">r0</text>
</g>
<!-- 12&#45;&gt;13 -->
<g id="edge16" class="edge"><title>12&#45;&gt;13</title>
<path fill="none" stroke="black" d="M158.584,-935.697C155.206,-927.813 151.13,-918.304 147.377,-909.546"/>
<polygon fill="black" stroke="black" points="150.487,-907.917 143.33,-900.104 144.053,-910.675 150.487,-907.917"/>
</g>
<!-- 14 -->
<g id="node17" class="node"><title>14</title>
<polygon fill="none" stroke="black" points="190.25,-828 73.75,-828 73.75,-792 190.25,-792 190.25,-828"/>
<text text-anchor="start" x="84.5" y="-807.3" font-family="Times,serif" font-size="14.00">206c : breq </text>
<text text-anchor="start" x="150.5" y="-807.3" font-family="Times,serif" font-size="14.00" fill="#000000">.+18</text>
<text text-anchor="start" x="176.5" y="-807.3" font-family="Times,serif" font-size="14.00" fill="#000000"> </text>
</g>
<!-- 13&#45;&gt;14 -->
<g id="edge17" class="edge"><title>13&#45;&gt;14</title>
<path fill="none" stroke="black" d="M135.011,-863.697C134.57,-855.983 134.041,-846.712 133.549,-838.112"/>
<polygon fill="black" stroke="black" points="137.042,-837.888 132.977,-828.104 130.054,-838.288 137.042,-837.888"/>
</g>
<!-- 15 -->
<g id="node18" class="node"><title>15</title>
<polygon fill="none" stroke="black" points="191.25,-756 72.75,-756 72.75,-720 191.25,-720 191.25,-756"/>
<text text-anchor="start" x="83.5" y="-735.3" font-family="Times,serif" font-size="14.00">206e : ld </text>
<text text-anchor="start" x="135.5" y="-735.3" font-family="Times,serif" font-size="14.00" fill="#7f7fff">r20</text>
<text text-anchor="start" x="154.5" y="-735.3" font-family="Times,serif" font-size="14.00">, </text>
<text text-anchor="start" x="162.5" y="-735.3" font-family="Times,serif" font-size="14.00" fill="#000000">X+</text>
</g>
<!-- 14&#45;&gt;15 -->
<g id="edge18" class="edge"><title>14&#45;&gt;15</title>
<path fill="none" stroke="black" d="M132,-791.697C132,-783.983 132,-774.712 132,-766.112"/>
<polygon fill="black" stroke="black" points="135.5,-766.104 132,-756.104 128.5,-766.104 135.5,-766.104"/>
</g>
<!-- 24 -->
<g id="node19" class="node"><title>24</title>
<polygon fill="none" stroke="black" points="174,-108 30,-108 30,-72 174,-72 174,-108"/>
<text text-anchor="start" x="40.5" y="-87.3" font-family="Times,serif" font-size="14.00">2080 : sbiw </text>
<text text-anchor="start" x="108.5" y="-87.3" font-family="Times,serif" font-size="14.00" fill="#ff7fff">r24</text>
<text text-anchor="start" x="127.5" y="-87.3" font-family="Times,serif" font-size="14.00">, </text>
<text text-anchor="start" x="135.5" y="-87.3" font-family="Times,serif" font-size="14.00" fill="#000000">0x01</text>
</g>
<!-- 14&#45;&gt;24 -->
<g id="edge19" class="edge"><title>14&#45;&gt;24</title>
<path fill="none" stroke="black" d="M101.335,-791.897C87.7395,-782.867 72.6661,-770.615 63,-756 40.4621,-721.924 40,-707.855 40,-667 40,-667 40,-667 40,-233 40,-189.497 64.7419,-144.29 82.966,-116.892"/>
<polygon fill="black" stroke="black" points="86.0813,-118.538 88.8514,-108.312 80.3087,-114.579 86.0813,-118.538"/>
</g>
<!-- 16 -->
<g id="node20" class="node"><title>16</title>
<polygon fill="none" stroke="black" points="189.25,-684 74.75,-684 74.75,-648 189.25,-648 189.25,-684"/>
<text text-anchor="start" x="85.5" y="-663.3" font-family="Times,serif" font-size="14.00">2070 : cp </text>
<text text-anchor="start" x="140.5" y="-663.3" font-family="Times,serif" font-size="14.00" fill="#7f7fff">r20</text>
<text text-anchor="start" x="159.5" y="-663.3" font-family="Times,serif" font-size="14.00">, </text>
<text text-anchor="start" x="167.5" y="-663.3" font-family="Times,serif" font-size="14.00" fill="#ff55ff">r0</text>
</g>
<!-- 15&#45;&gt;16 -->
<g id="edge20" class="edge"><title>15&#45;&gt;16</title>
<path fill="none" stroke="black" d="M132,-719.697C132,-711.983 132,-702.712 132,-694.112"/>
<polygon fill="black" stroke="black" points="135.5,-694.104 132,-684.104 128.5,-694.104 135.5,-694.104"/>
</g>
<!-- 24&#45;&gt;25 -->
<g id="edge31" class="edge"><title>24&#45;&gt;25</title>
<path fill="none" stroke="black" d="M89.6404,-71.6966C83.7672,-63.4741 76.6309,-53.4832 70.1576,-44.4207"/>
<polygon fill="black" stroke="black" points="72.8779,-42.2073 64.2174,-36.1043 67.1817,-46.276 72.8779,-42.2073"/>
</g>
<!-- 17 -->
<g id="node21" class="node"><title>17</title>
<polygon fill="none" stroke="black" points="195.25,-612 68.75,-612 68.75,-576 195.25,-576 195.25,-612"/>
<text text-anchor="start" x="79.5" y="-591.3" font-family="Times,serif" font-size="14.00">2072 : cpse </text>
<text text-anchor="start" x="146.5" y="-591.3" font-family="Times,serif" font-size="14.00" fill="#7f7fff">r20</text>
<text text-anchor="start" x="165.5" y="-591.3" font-family="Times,serif" font-size="14.00">, </text>
<text text-anchor="start" x="173.5" y="-591.3" font-family="Times,serif" font-size="14.00" fill="#557fff">r1</text>
</g>
<!-- 16&#45;&gt;17 -->
<g id="edge21" class="edge"><title>16&#45;&gt;17</title>
<path fill="none" stroke="black" d="M132,-647.697C132,-639.983 132,-630.712 132,-622.112"/>
<polygon fill="black" stroke="black" points="135.5,-622.104 132,-612.104 128.5,-622.104 135.5,-622.104"/>
</g>
<!-- 18 -->
<g id="node22" class="node"><title>18</title>
<polygon fill="none" stroke="black" points="224,-540 110,-540 110,-504 224,-504 224,-540"/>
<text text-anchor="start" x="120.5" y="-519.3" font-family="Times,serif" font-size="14.00">2074 : breq </text>
<text text-anchor="start" x="187.5" y="-519.3" font-family="Times,serif" font-size="14.00" fill="#000000">.&#45;14</text>
<text text-anchor="start" x="209.5" y="-519.3" font-family="Times,serif" font-size="14.00" fill="#000000"> </text>
</g>
<!-- 17&#45;&gt;18 -->
<g id="edge22" class="edge"><title>17&#45;&gt;18</title>
<path fill="none" stroke="black" d="M140.652,-575.697C144.636,-567.728 149.45,-558.1 153.868,-549.264"/>
<polygon fill="black" stroke="black" points="157.106,-550.614 158.448,-540.104 150.845,-547.483 157.106,-550.614"/>
</g>
<!-- 18&#45;&gt;12 -->
<g id="edge23" class="edge"><title>18&#45;&gt;12</title>
<path fill="none" stroke="black" d="M181.521,-540.112C189.244,-550.021 198.296,-563.062 204,-576 220.356,-613.097 224,-624.458 224,-665 224,-811 224,-811 224,-811 224,-851.746 218.596,-862.787 202,-900 197.763,-909.5 191.818,-919.132 185.978,-927.531"/>
<polygon fill="black" stroke="black" points="183.034,-925.629 180.006,-935.781 188.705,-929.733 183.034,-925.629"/>
</g>
<!-- 19 -->
<g id="node23" class="node"><title>19</title>
<polygon fill="none" stroke="black" points="234,-468 100,-468 100,-432 234,-432 234,-468"/>
<text text-anchor="start" x="110.5" y="-447.3" font-family="Times,serif" font-size="14.00">2076 : movw </text>
<text text-anchor="start" x="187.5" y="-447.3" font-family="Times,serif" font-size="14.00" fill="#000000">Z</text>
<text text-anchor="start" x="196.5" y="-447.3" font-family="Times,serif" font-size="14.00">, </text>
<text text-anchor="start" x="204.5" y="-447.3" font-family="Times,serif" font-size="14.00" fill="#7fffff">r22</text>
</g>
<!-- 18&#45;&gt;19 -->
<g id="edge24" class="edge"><title>18&#45;&gt;19</title>
<path fill="none" stroke="black" d="M167,-503.697C167,-495.983 167,-486.712 167,-478.112"/>
<polygon fill="black" stroke="black" points="170.5,-478.104 167,-468.104 163.5,-478.104 170.5,-478.104"/>
</g>
<!-- 20 -->
<g id="node24" class="node"><title>20</title>
<polygon fill="none" stroke="black" points="231.25,-396 104.75,-396 104.75,-360 231.25,-360 231.25,-396"/>
<text text-anchor="start" x="115.5" y="-375.3" font-family="Times,serif" font-size="14.00">2078 : cpse </text>
<text text-anchor="start" x="182.5" y="-375.3" font-family="Times,serif" font-size="14.00" fill="#7f7fff">r20</text>
<text text-anchor="start" x="201.5" y="-375.3" font-family="Times,serif" font-size="14.00">, </text>
<text text-anchor="start" x="209.5" y="-375.3" font-family="Times,serif" font-size="14.00" fill="#557fff">r1</text>
</g>
<!-- 19&#45;&gt;20 -->
<g id="edge25" class="edge"><title>19&#45;&gt;20</title>
<path fill="none" stroke="black" d="M167.247,-431.697C167.357,-423.983 167.49,-414.712 167.613,-406.112"/>
<polygon fill="black" stroke="black" points="171.112,-406.153 167.756,-396.104 164.113,-406.053 171.112,-406.153"/>
</g>
<!-- 21 -->
<g id="node25" class="node"><title>21</title>
<polygon fill="none" stroke="black" points="405.25,-324 290.75,-324 290.75,-288 405.25,-288 405.25,-324"/>
<text text-anchor="start" x="301.5" y="-303.3" font-family="Times,serif" font-size="14.00">207a : rjmp </text>
<text text-anchor="start" x="369.5" y="-303.3" font-family="Times,serif" font-size="14.00" fill="#000000">.&#45;34</text>
<text text-anchor="start" x="391.5" y="-303.3" font-family="Times,serif" font-size="14.00" fill="#000000"> </text>
</g>
<!-- 20&#45;&gt;21 -->
<g id="edge26" class="edge"><title>20&#45;&gt;21</title>
<path fill="none" stroke="black" d="M212.033,-359.876C236.968,-350.179 268.338,-337.98 294.662,-327.743"/>
<polygon fill="black" stroke="black" points="296.059,-330.955 304.11,-324.068 293.521,-324.431 296.059,-330.955"/>
</g>
<!-- 21&#45;&gt;5 -->
<g id="edge27" class="edge"><title>21&#45;&gt;5</title>
<path fill="none" stroke="black" d="M343.143,-324.329C336.13,-350.921 324,-403.496 324,-449 324,-1315 324,-1315 324,-1315 324,-1371.35 267.449,-1412.29 224.261,-1435.35"/>
<polygon fill="black" stroke="black" points="222.548,-1432.29 215.273,-1439.99 225.763,-1438.51 222.548,-1432.29"/>
</g>
<!-- 21&#45;&gt;22 -->
<g id="edge28" class="edge"><title>21&#45;&gt;22</title>
<path fill="none" stroke="black" d="M326.742,-287.697C315.911,-278.881 302.582,-268.032 290.84,-258.474"/>
<polygon fill="black" stroke="black" points="292.979,-255.703 283.014,-252.104 288.56,-261.132 292.979,-255.703"/>
</g>
<!-- 23&#45;&gt;24 -->
<g id="edge30" class="edge"><title>23&#45;&gt;24</title>
<path fill="none" stroke="black" d="M174.27,-143.697C162.063,-134.796 147.015,-123.823 133.816,-114.199"/>
<polygon fill="black" stroke="black" points="135.6,-111.168 125.457,-108.104 131.475,-116.824 135.6,-111.168"/>
</g>
</g>
</svg>
